<svg fill="none" height="42" viewBox="0 0 220 42" width="220" xmlns="http://www.w3.org/2000/svg" xmlns:xlink="http://www.w3.org/1999/xlink"><clipPath id="a"><path d="m85 5h118.848v31.6413h-118.848z"/></clipPath><rect fill="#fff" height="42" rx="5" width="220"/><g fill="#000"><g clip-path="url(#a)"><path d="m131.088 17.0938c-1.526 0-2.28 1.1883-2.627 1.9556-.194.4288-.248.7672-.405.7672-.222 0-.063-.2945-.244-.9468-.239-.8589-.956-1.776-2.48-1.776-1.603 0-2.289 1.3407-2.614 2.0783-.223.5037-.223.6445-.394.6445-.248 0-.043-.4004.069-.8706.22-.9261.052-1.634.052-1.634h-2.541v9.4617h3.469s0-3.9539 0-4.7069c0-.9288.392-2.1068 1.064-2.1068.776 0 .933.5903.933 1.6844v5.1319h3.483s0-3.9784 0-4.7095c0-.8267.341-2.1068 1.07-2.1068.788 0 .927.8306.927 1.6844v5.1293h3.421s0-3.7485 0-5.5633c-.003-2.4697-.882-4.1166-3.183-4.1166z"/><path d="m189.962 17.0938c-1.526 0-2.28 1.1883-2.627 1.9556-.194.4288-.248.7672-.405.7672-.222 0-.073-.3733-.244-.9468-.254-.8538-.886-1.776-2.48-1.776-1.603 0-2.289 1.3407-2.614 2.0783-.223.5037-.223.6445-.394.6445-.248 0-.043-.4004.069-.8706.22-.9261.052-1.634.052-1.634h-2.541v9.4617h3.469s0-3.9539 0-4.7069c0-.9288.392-2.1068 1.064-2.1068.776 0 .933.5903.933 1.6844v5.1319h3.483s0-3.9784 0-4.7095c0-.8267.341-2.1068 1.07-2.1068.788 0 .927.8306.927 1.6844v5.1293h3.421s0-3.7485 0-5.5633c-.001-2.4697-.881-4.1166-3.183-4.1166z"/><path d="m140.191 17.0967c-2.657 0-4.563.9675-4.563.9675v2.843s2.105-1.1987 3.813-1.1987c1.363 0 1.53.7285 1.469 1.3317 0 0-.393-.1033-1.593-.1033-2.827 0-4.254 1.2723-4.254 3.3119 0 1.9349 1.603 2.7435 2.955 2.7435 1.971 0 2.839-1.3123 3.105-1.9349.185-.4314.218-.7234.385-.7234.189 0 .125.2093.116.6381-.016.7531.019 1.3214.141 1.8006h2.614v-4.6565c0-2.9037-1.04-5.0195-4.188-5.0195zm-.844 7.466c-.83.1898-1.259-.0633-1.259-.6071 0-.7453.779-1.0437 1.891-1.0437.49 0 .951.0413.951.0413 0 .3178-.701 1.4067-1.583 1.6095z"/><path d="m153.561 14.4482h-3.469v12.328h3.469z"/><path d="m157.379 22.0452c0-.8513.798-1.625 2.263-1.625 1.597 0 2.881.7608 3.169.9339v-3.2899s-1.015-.9675-3.508-.9675c-2.629 0-4.818 1.5229-4.818 4.8012s1.987 5.0957 4.812 5.0957c2.206 0 3.521-1.2 3.521-1.2v-3.1258c-.417.2299-1.575 1.0268-3.159 1.0268-1.677 0-2.28-.7633-2.28-1.6494z"/><path d="m169.838 17.0975c-2.008 0-2.772 1.8846-2.926 2.2114s-.231.5154-.356.5115c-.22-.0078-.067-.4017.019-.6575.162-.4831.504-1.7489.504-3.3054 0-1.0553-.145-1.4093-.145-1.4093h-2.994v12.328h3.469s0-3.941 0-4.707c0-.7672.309-2.1067 1.183-2.1067.724 0 .951.5309.951 1.6004v5.2133h3.469s0-2.8831 0-5.0079c-.001-2.4284-.408-4.6708-3.174-4.6708z"/><path d="m174.137 17.3252v9.45h3.469v-9.45s-.583.3371-1.731.3371-1.738-.3371-1.738-.3371z"/><path d="m175.861 17.0961c1.173 0 2.124-.6142 2.124-1.3718s-.951-1.3718-2.124-1.3718-2.124.6142-2.124 1.3718.951 1.3718 2.124 1.3718z"/><path d="m145.501 17.3252v9.45h3.469v-9.45s-.583.3371-1.731.3371c-1.147 0-1.738-.3371-1.738-.3371z"/><path d="m147.225 17.0961c1.173 0 2.124-.6142 2.124-1.3718s-.951-1.3718-2.124-1.3718-2.123.6142-2.123 1.3718.95 1.3718 2.123 1.3718z"/><path d="m200.035 17.0938c-1.783 0-2.6 1.3239-2.955 2.0783-.235.4986-.223.6445-.394.6445-.248 0-.043-.4004.069-.8706.219-.9261.052-1.634.052-1.634h-2.541v12.0735h3.469s0-1.9763 0-3.8286c.411.6898 1.17 1.4261 2.343 1.4261 2.509 0 3.77-2.1016 3.77-4.9408 0-3.2163-1.51-4.9484-3.813-4.9484zm-.952 7.6481c-.796 0-1.381-.9985-1.381-2.391 0-1.3511.602-2.3896 1.353-2.3896.966 0 1.377.8771 1.377 2.3896.001 1.5746-.379 2.391-1.349 2.391z"/><path d="m107.65 19.953c.233-.0272.456-.0285.661 0 .119-.27.14-.735.033-1.2414-.159-.753-.375-1.209-.818-1.1379-.445.071-.461.6161-.302 1.3692.089.4236.248.7853.426 1.0101z"/><path d="m103.834 20.5478c.318.1382.514.23.59.1499.049-.0504.034-.1447-.042-.2674-.157-.2532-.48-.5115-.822-.6549-.701-.2984-1.535-.1989-2.18.2596-.213.1537-.415.3682-.386.4973.009.0427.042.0737.116.084.175.0194.788-.2868 1.494-.3294.499-.031.912.1227 1.23.2609z"/><path d="m103.195 20.9102c-.414.0645-.644.2002-.79.3255-.125.1085-.202.2286-.202.3126 0 .04.018.0632.031.0749.019.0168.042.0258.068.0258.094 0 .303-.0827.303-.0827.577-.2041.956-.1795 1.333-.1369.209.0233.307.0362.352-.0349.013-.0206.03-.0645-.011-.1304-.096-.1576-.514-.4211-1.084-.3539z"/><path d="m106.361 22.2364c.282.1369.591.0827.692-.1201.1-.2028-.046-.478-.326-.6149-.282-.1369-.591-.0827-.692.1201-.102.2028.046.478.326.6149z"/><path d="m108.169 20.6719c-.228-.0039-.418.2442-.423.5542s.176.5644.405.5683c.228.0039.417-.2441.422-.5541.006-.31-.176-.5645-.404-.5684z"/><path d="m92.8245 26.2645c-.0574-.071-.15-.0491-.24-.0284-.0627.0142-.1344.031-.2127.0297-.1683-.0026-.3105-.0749-.39-.1963-.1044-.1576-.0979-.394.0169-.6639.0157-.0362.0339-.0763.0535-.1215.1826-.4068.4905-1.0876.1461-1.7373-.2596-.4882-.6823-.7931-1.1898-.8564-.4879-.0607-.9901.1176-1.3097.4676-.5049.5516-.5845 1.3033-.4866 1.5681.0352.0969.0913.124.133.1292.0861.0116.2127-.0504.2922-.2622.0053-.0155.0131-.0388.0222-.0685.0352-.1124.1018-.3216.2101-.4882.1304-.2015.3339-.341.5727-.3914.2426-.0517.4918-.0052.6992.1291.3536.23.4905.6588.3392 1.0683-.0783.2118-.2048.6174-.1774.9507.0561.6742.4748.9442.8519.9739.3652.0142.6209-.1899.6862-.3384.0365-.0879.0039-.1408-.017-.1641z"/><path d="m113.933 25.0328c-.014-.0491-.104-.3772-.23-.7724-.125-.3953-.253-.6743-.253-.6743.5-.7414.509-1.4041.442-1.7786-.07-.4651-.266-.8616-.661-1.2711-.394-.4094-1.2-.8292-2.334-1.1444-.129-.0362-.557-.1524-.595-.1641-.002-.0245-.031-1.3872-.057-1.9737-.018-.4236-.056-1.0837-.262-1.7347-.247-.8809-.677-1.6508-1.214-2.1442 1.481-1.519 2.405-3.1931 2.403-4.62944-.003-2.76164-3.429-3.59737-7.651-1.8665-.004.00129-.888.3733-.895.37588-.004-.00387-1.616-1.5707-1.641-1.59136-4.8112-4.15667-19.8595 12.40542-15.0482 16.42772l1.0515.8822c-.2727.7001-.3797 1.501-.2922 2.3626.1121 1.1069.6888 2.1687 1.6241 2.9876.8872.7789 2.0534 1.2711 3.1858 1.2698 1.8721 4.2716 6.1498 6.8924 11.166 7.0397 5.38.1589 9.896-2.3418 11.789-6.8318.124-.3151.65-1.7347.65-2.9889 0-1.2581-.719-1.78-1.178-1.78zm-22.0134 3.3623c-.1631.0271-.3301.0387-.4984.0349-1.6255-.0427-3.3801-1.4919-3.5549-3.2099-.1931-1.8988.7866-3.3597 2.5217-3.7072.2074-.0413.4579-.0658.7279-.0516.972.0529 2.4044.7918 2.7318 2.8882.2909 1.8575-.1696 3.7485-1.9281 4.0456zm-1.8147-8.0176c-1.0802.208-2.0325.8138-2.6144 1.6508-.3483-.2867-.9967-.8434-1.1102-1.0604-.9288-1.7477 1.0137-5.1449 2.3718-7.063 3.3553-4.74054 8.6101-8.33015 11.0432-7.67914.3957.11109 1.7047 1.61462 1.7047 1.61462s-2.4314 1.33561-4.687 3.19822c-3.037 2.3173-5.3331 5.6848-6.7081 9.3389zm17.0571 7.3072c.035-.0143.06-.0543.056-.0943-.005-.0491-.049-.084-.098-.0788 0 0-2.545.3733-4.95-.4986.262-.8435.958-.5387 2.011-.4547 1.898.1124 3.598-.1628 4.856-.5193 1.089-.31 2.519-.9196 3.63-1.7877.375.8151.508 1.7115.508 1.7115s.29-.0516.532.0969c.23.1395.397.4301.282 1.1793-.233 1.4015-.835 2.5395-1.846 3.5858-.616.6561-1.363 1.2271-2.218 1.6417-.454.2364-.938.4405-1.448.6058-3.812 1.2323-7.714-.1227-8.9713-3.0329-.1005-.2183-.1853-.4482-.2518-.6872-.5362-1.9181-.0809-4.2186 1.3411-5.6679 0 0 0 0 0-.0013.087-.0917.177-.2002.177-.3371 0-.115-.073-.2351-.137-.3204-.497-.7143-2.2213-1.9324-1.8756-4.2897.2479-1.6934 1.7446-2.8856 3.1386-2.8146.118.0065.236.0129.354.0207.604.0349 1.131.1124 1.629.133.833.0362 1.581-.0839 2.468-.8163.299-.2467.539-.4612.945-.5283.043-.0078.149-.0452.361-.0349.217.0116.423.0697.608.1925.711.4688.812 1.6029.848 2.4322.021.4741.078 1.6198.099 1.9492.046.7517.246.859.649.9907.227.0736.438.1292.749.2157.94.2622 1.499.527 1.851.868.21.2132.308.4392.338.6549.111.8009-.629 1.7916-2.586 2.6906-2.14.983-4.736 1.2323-6.529 1.0347-.137-.0155-.627-.0698-.629-.0698-1.435-.1912-2.253 1.6443-1.392 2.9024.554.8112 2.066 1.3382 3.578 1.3382 3.468 0 6.133-1.466 7.125-2.7319.03-.0374.032-.0426.079-.1124.048-.0723.009-.1123-.052-.0723-.81.549-4.408 2.7268-8.255 2.0719 0 0-.467-.0762-.895-.2403-.34-.1304-1.049-.4534-1.135-1.1754 3.101.9494 5.056.0504 5.056.0504zm-4.919-.5748s.001 0 0 0c.001.0012.001.0012.001.0025 0-.0013 0-.0025-.001-.0025zm-5.9414-13.2244c1.1924-1.3653 2.6614-2.5511 3.9764-3.2176.046-.0233.094.0258.069.0697-.104.1873-.305.5878-.3691.8926-.0104.0478.0421.0827.0821.0555.818-.5528 2.243-1.1444 3.491-1.2206.054-.0039.08.0646.037.0969-.191.1446-.398.3436-.55.5451-.026.0348-.001.0839.042.0839.877.0065 2.114.31 2.919.757.054.0297.015.1343-.046.1214-1.219-.2764-3.215-.487-5.288.0142-1.8495.4469-3.2623 1.1367-4.2929 1.8794-.0496.0388-.1122-.0284-.0705-.0775z"/></g><path d="m14.092 27h1.079v-4.16c0-1.222.91-1.82 1.794-1.82.936 0 1.443.494 1.443 1.69v4.29h1.079v-4.16c0-1.222.91-1.82 1.794-1.82.936 0 1.443.494 1.443 1.69v4.29h1.079v-4.212c0-1.976-1.066-2.704-2.288-2.704-.845 0-1.859.39-2.327 1.274-.351-.91-1.118-1.274-1.989-1.274-.975 0-1.716.52-2.028 1.157v-1.04h-1.079zm13.535.117c1.001 0 1.612-.338 2.119-.975v.858h1.079v-4.485c0-1.898-1.183-2.431-2.483-2.431-1.313 0-2.548.572-2.691 2.119h1.079c.104-.832.624-1.222 1.56-1.222 1.04 0 1.456.455 1.456 1.534v.494h-.975c-1.742 0-3.406.533-3.406 2.106 0 1.391 1.001 2.002 2.262 2.002zm.104-.858c-.949 0-1.287-.442-1.287-1.144 0-1.001 1.001-1.339 2.366-1.339h.936v.845c0 1.053-.871 1.638-2.015 1.638zm7.7745.858c.988 0 1.937-.624 2.327-1.287v1.17h1.079v-10.049h-1.079v4.342c-.39-.663-1.092-1.209-2.223-1.209-1.872 0-3.172 1.469-3.172 3.549v.104c0 2.119 1.287 3.38 3.068 3.38zm.117-.897c-1.144 0-2.067-.819-2.067-2.535v-.104c0-1.651.806-2.6 2.158-2.6 1.326 0 2.158.819 2.158 2.561v.104c0 1.742-.988 2.574-2.249 2.574zm8.2544.897c1.534 0 2.665-.715 2.899-2.08h-1.079c-.143.793-.754 1.183-1.807 1.183-1.391 0-2.132-.858-2.184-2.405h5.122v-.351c0-2.431-1.482-3.38-3.055-3.38-1.872 0-3.185 1.43-3.185 3.484v.104c0 2.093 1.365 3.445 3.289 3.445zm-2.132-4.173c.182-1.209.923-1.963 2.028-1.963 1.118 0 1.846.559 1.95 1.963zm11.5441 4.056h1.183l1.586-5.096 1.417 5.096h1.196l2.119-6.799h-1.105l-1.599 5.473-1.547-5.473h-.936l-1.651 5.473-1.586-5.473h-1.17zm9.5023-8.216c.39 0 .715-.325.715-.715s-.325-.715-.715-.715-.715.325-.715.715.325.715.715.715zm-.52 8.216h1.079v-6.799h-1.079zm5.3545.091c.442 0 .702-.065.923-.143v-.91c-.234.091-.494.143-.832.143-.546 0-.845-.325-.845-.988v-4.082h1.586v-.91h-1.586v-1.547h-1.079v1.547h-.975v.91h.975v4.186c0 1.066.598 1.794 1.833 1.794zm2.5541-.091h1.079v-4.121c0-1.222.897-1.859 1.898-1.859 1.092 0 1.599.533 1.599 1.729v4.251h1.079v-4.173c0-1.976-.988-2.743-2.392-2.743-1.118 0-1.872.559-2.184 1.196v-4.329h-1.079z"/></g></svg>