<svg width="220" height="42" viewBox="0 0 220 42" fill="none" xmlns="http://www.w3.org/2000/svg">
<rect width="220" height="42" rx="5" fill="white"/>
<g clip-path="url(#clip0)">
<path d="M131.088 17.0938C129.562 17.0938 128.808 18.2821 128.461 19.0494C128.267 19.4782 128.213 19.8166 128.056 19.8166C127.834 19.8166 127.993 19.5221 127.812 18.8698C127.573 18.0109 126.856 17.0938 125.332 17.0938C123.729 17.0938 123.043 18.4345 122.718 19.1721C122.495 19.6758 122.495 19.8166 122.324 19.8166C122.076 19.8166 122.281 19.4162 122.393 18.946C122.613 18.0199 122.445 17.312 122.445 17.312H119.904V26.7737H123.373C123.373 26.7737 123.373 22.8198 123.373 22.0668C123.373 21.138 123.765 19.96 124.437 19.96C125.213 19.96 125.37 20.5503 125.37 21.6444C125.37 22.6364 125.37 26.7763 125.37 26.7763H128.853C128.853 26.7763 128.853 22.7979 128.853 22.0668C128.853 21.2401 129.194 19.96 129.923 19.96C130.711 19.96 130.85 20.7906 130.85 21.6444C130.85 22.4995 130.85 26.7737 130.85 26.7737H134.271C134.271 26.7737 134.271 23.0252 134.271 21.2104C134.268 18.7407 133.389 17.0938 131.088 17.0938Z" fill="black"/>
<path d="M189.962 17.0938C188.436 17.0938 187.682 18.2821 187.335 19.0494C187.141 19.4782 187.087 19.8166 186.93 19.8166C186.708 19.8166 186.857 19.4433 186.686 18.8698C186.432 18.016 185.8 17.0938 184.206 17.0938C182.603 17.0938 181.917 18.4345 181.592 19.1721C181.369 19.6758 181.369 19.8166 181.198 19.8166C180.95 19.8166 181.155 19.4162 181.267 18.946C181.487 18.0199 181.319 17.312 181.319 17.312H178.778V26.7737H182.247C182.247 26.7737 182.247 22.8198 182.247 22.0668C182.247 21.138 182.639 19.96 183.311 19.96C184.087 19.96 184.244 20.5503 184.244 21.6444C184.244 22.6364 184.244 26.7763 184.244 26.7763H187.727C187.727 26.7763 187.727 22.7979 187.727 22.0668C187.727 21.2401 188.068 19.96 188.797 19.96C189.585 19.96 189.724 20.7906 189.724 21.6444C189.724 22.4995 189.724 26.7737 189.724 26.7737H193.145C193.145 26.7737 193.145 23.0252 193.145 21.2104C193.144 18.7407 192.264 17.0938 189.962 17.0938Z" fill="black"/>
<path d="M140.191 17.0967C137.534 17.0967 135.628 18.0642 135.628 18.0642V20.9072C135.628 20.9072 137.733 19.7085 139.441 19.7085C140.804 19.7085 140.971 20.437 140.91 21.0402C140.91 21.0402 140.517 20.9369 139.317 20.9369C136.49 20.9369 135.063 22.2092 135.063 24.2488C135.063 26.1837 136.666 26.9923 138.018 26.9923C139.989 26.9923 140.857 25.68 141.123 25.0574C141.308 24.626 141.341 24.334 141.508 24.334C141.697 24.334 141.633 24.5433 141.624 24.9721C141.608 25.7252 141.643 26.2935 141.765 26.7727H144.379V22.1162C144.379 19.2125 143.339 17.0967 140.191 17.0967ZM139.347 24.5627C138.517 24.7525 138.088 24.4994 138.088 23.9556C138.088 23.2103 138.867 22.9119 139.979 22.9119C140.469 22.9119 140.93 22.9532 140.93 22.9532C140.93 23.271 140.229 24.3599 139.347 24.5627Z" fill="black"/>
<path d="M153.561 14.4482H150.092V26.7762H153.561V14.4482Z" fill="black"/>
<path d="M157.379 22.0452C157.379 21.1939 158.177 20.4202 159.642 20.4202C161.239 20.4202 162.523 21.181 162.811 21.3541V18.0642C162.811 18.0642 161.796 17.0967 159.303 17.0967C156.674 17.0967 154.485 18.6196 154.485 21.8979C154.485 25.1762 156.472 26.9936 159.297 26.9936C161.503 26.9936 162.818 25.7936 162.818 25.7936V22.6678C162.401 22.8977 161.243 23.6946 159.659 23.6946C157.982 23.6946 157.379 22.9313 157.379 22.0452Z" fill="black"/>
<path d="M169.838 17.0975C167.83 17.0975 167.066 18.9821 166.912 19.3089C166.758 19.6357 166.681 19.8243 166.556 19.8204C166.336 19.8126 166.489 19.4187 166.575 19.1629C166.737 18.6798 167.079 17.414 167.079 15.8575C167.079 14.8022 166.934 14.4482 166.934 14.4482H163.94V26.7762H167.409C167.409 26.7762 167.409 22.8352 167.409 22.0692C167.409 21.302 167.718 19.9625 168.592 19.9625C169.316 19.9625 169.543 20.4934 169.543 21.5629C169.543 22.6324 169.543 26.7762 169.543 26.7762H173.012C173.012 26.7762 173.012 23.8931 173.012 21.7683C173.011 19.3399 172.604 17.0975 169.838 17.0975Z" fill="black"/>
<path d="M174.137 17.3252V26.7752H177.606V17.3252C177.606 17.3252 177.023 17.6623 175.875 17.6623C174.727 17.6623 174.137 17.3252 174.137 17.3252Z" fill="black"/>
<path d="M175.861 17.0961C177.034 17.0961 177.985 16.4819 177.985 15.7243C177.985 14.9667 177.034 14.3525 175.861 14.3525C174.688 14.3525 173.737 14.9667 173.737 15.7243C173.737 16.4819 174.688 17.0961 175.861 17.0961Z" fill="black"/>
<path d="M145.501 17.3252V26.7752H148.97V17.3252C148.97 17.3252 148.387 17.6623 147.239 17.6623C146.092 17.6623 145.501 17.3252 145.501 17.3252Z" fill="black"/>
<path d="M147.225 17.0961C148.398 17.0961 149.349 16.4819 149.349 15.7243C149.349 14.9667 148.398 14.3525 147.225 14.3525C146.052 14.3525 145.102 14.9667 145.102 15.7243C145.102 16.4819 146.052 17.0961 147.225 17.0961Z" fill="black"/>
<path d="M200.035 17.0938C198.252 17.0938 197.435 18.4177 197.08 19.1721C196.845 19.6707 196.857 19.8166 196.686 19.8166C196.438 19.8166 196.643 19.4162 196.755 18.946C196.974 18.0199 196.807 17.312 196.807 17.312H194.266V29.3855H197.735C197.735 29.3855 197.735 27.4092 197.735 25.5569C198.146 26.2467 198.905 26.983 200.078 26.983C202.587 26.983 203.848 24.8814 203.848 22.0422C203.848 18.8259 202.338 17.0938 200.035 17.0938ZM199.083 24.7419C198.287 24.7419 197.702 23.7434 197.702 22.3509C197.702 20.9998 198.304 19.9613 199.055 19.9613C200.021 19.9613 200.432 20.8384 200.432 22.3509C200.433 23.9255 200.053 24.7419 199.083 24.7419Z" fill="black"/>
<path d="M107.65 19.953C107.883 19.9258 108.106 19.9245 108.311 19.953C108.43 19.683 108.451 19.218 108.344 18.7116C108.185 17.9586 107.969 17.5026 107.526 17.5737C107.081 17.6447 107.065 18.1898 107.224 18.9429C107.313 19.3665 107.472 19.7282 107.65 19.953Z" fill="black"/>
<path d="M103.834 20.5478C104.152 20.686 104.348 20.7778 104.424 20.6977C104.473 20.6473 104.458 20.553 104.382 20.4303C104.225 20.1771 103.902 19.9188 103.56 19.7754C102.859 19.477 102.025 19.5765 101.38 20.035C101.167 20.1887 100.965 20.4032 100.994 20.5323C101.003 20.575 101.036 20.606 101.11 20.6163C101.285 20.6357 101.898 20.3295 102.604 20.2869C103.103 20.2559 103.516 20.4096 103.834 20.5478Z" fill="black"/>
<path d="M103.195 20.9102C102.781 20.9747 102.551 21.1104 102.405 21.2357C102.28 21.3442 102.203 21.4643 102.203 21.5483C102.203 21.5883 102.221 21.6115 102.234 21.6232C102.253 21.64 102.276 21.649 102.302 21.649C102.396 21.649 102.605 21.5663 102.605 21.5663C103.182 21.3622 103.561 21.3868 103.938 21.4294C104.147 21.4527 104.245 21.4656 104.29 21.3945C104.303 21.3739 104.32 21.33 104.279 21.2641C104.183 21.1065 103.765 20.843 103.195 20.9102Z" fill="black"/>
<path d="M106.361 22.2364C106.643 22.3733 106.952 22.3191 107.053 22.1163C107.153 21.9135 107.007 21.6383 106.727 21.5014C106.445 21.3645 106.136 21.4187 106.035 21.6215C105.933 21.8243 106.081 22.0995 106.361 22.2364Z" fill="black"/>
<path d="M108.169 20.6719C107.941 20.668 107.751 20.9161 107.746 21.2261C107.741 21.5361 107.922 21.7905 108.151 21.7944C108.379 21.7983 108.568 21.5503 108.573 21.2403C108.579 20.9303 108.397 20.6758 108.169 20.6719Z" fill="black"/>
<path d="M92.8245 26.2645C92.7671 26.1935 92.6745 26.2154 92.5845 26.2361C92.5218 26.2503 92.4501 26.2671 92.3718 26.2658C92.2035 26.2632 92.0613 26.1909 91.9818 26.0695C91.8774 25.9119 91.8839 25.6755 91.9987 25.4056C92.0144 25.3694 92.0326 25.3293 92.0522 25.2841C92.2348 24.8773 92.5427 24.1965 92.1983 23.5468C91.9387 23.0586 91.516 22.7537 91.0085 22.6904C90.5206 22.6297 90.0184 22.808 89.6988 23.158C89.1939 23.7096 89.1143 24.4613 89.2122 24.7261C89.2474 24.823 89.3035 24.8501 89.3452 24.8553C89.4313 24.8669 89.5579 24.8049 89.6374 24.5931C89.6427 24.5776 89.6505 24.5543 89.6596 24.5246C89.6948 24.4122 89.7614 24.203 89.8697 24.0364C90.0001 23.8349 90.2036 23.6954 90.4424 23.645C90.685 23.5933 90.9342 23.6398 91.1416 23.7741C91.4952 24.0041 91.6321 24.4329 91.4808 24.8424C91.4025 25.0542 91.276 25.4598 91.3034 25.7931C91.3595 26.4673 91.7782 26.7373 92.1553 26.767C92.5205 26.7812 92.7762 26.5771 92.8415 26.4286C92.878 26.3407 92.8454 26.2878 92.8245 26.2645Z" fill="black"/>
<path d="M113.933 25.0328C113.919 24.9837 113.829 24.6556 113.703 24.2604C113.578 23.8651 113.45 23.5861 113.45 23.5861C113.95 22.8447 113.959 22.182 113.892 21.8075C113.822 21.3424 113.626 20.9459 113.231 20.5364C112.837 20.127 112.031 19.7072 110.897 19.392C110.768 19.3558 110.34 19.2396 110.302 19.2279C110.3 19.2034 110.271 17.8407 110.245 17.2542C110.227 16.8306 110.189 16.1705 109.983 15.5195C109.736 14.6386 109.306 13.8687 108.769 13.3753C110.25 11.8563 111.174 10.1822 111.172 8.74586C111.169 5.98422 107.743 5.14849 103.521 6.87936C103.517 6.88065 102.633 7.25266 102.626 7.25524C102.622 7.25137 101.01 5.68454 100.985 5.66388C96.1738 1.50721 81.1255 18.0693 85.9368 22.0916L86.9883 22.9738C86.7156 23.6739 86.6086 24.4748 86.6961 25.3364C86.8082 26.4433 87.3849 27.5051 88.3202 28.324C89.2074 29.1029 90.3736 29.5951 91.506 29.5938C93.3781 33.8654 97.6558 36.4862 102.672 36.6335C108.052 36.7924 112.568 34.2917 114.461 29.8017C114.585 29.4866 115.111 28.067 115.111 26.8128C115.111 25.5547 114.392 25.0328 113.933 25.0328ZM91.9196 28.3951C91.7565 28.4222 91.5895 28.4338 91.4212 28.43C89.7957 28.3873 88.0411 26.9381 87.8663 25.2201C87.6732 23.3213 88.6529 21.8604 90.388 21.5129C90.5954 21.4716 90.8459 21.4471 91.1159 21.4613C92.0879 21.5142 93.5203 22.2531 93.8477 24.3495C94.1386 26.207 93.6781 28.098 91.9196 28.3951ZM90.1049 20.3775C89.0247 20.5855 88.0724 21.1913 87.4905 22.0283C87.1422 21.7416 86.4938 21.1849 86.3803 20.9679C85.4515 19.2202 87.394 15.823 88.7521 13.9049C92.1074 9.16436 97.3622 5.57475 99.7953 6.22576C100.191 6.33685 101.5 7.84038 101.5 7.84038C101.5 7.84038 99.0686 9.17599 96.813 11.0386C93.776 13.3559 91.4799 16.7234 90.1049 20.3775ZM107.162 27.6847C107.197 27.6704 107.222 27.6304 107.218 27.5904C107.213 27.5413 107.169 27.5064 107.12 27.5116C107.12 27.5116 104.575 27.8849 102.17 27.013C102.432 26.1695 103.128 26.4743 104.181 26.5583C106.079 26.6707 107.779 26.3955 109.037 26.039C110.126 25.729 111.556 25.1194 112.667 24.2513C113.042 25.0664 113.175 25.9628 113.175 25.9628C113.175 25.9628 113.465 25.9112 113.707 26.0597C113.937 26.1992 114.104 26.4898 113.989 27.239C113.756 28.6405 113.154 29.7785 112.143 30.8248C111.527 31.4809 110.78 32.0519 109.925 32.4665C109.471 32.7029 108.987 32.907 108.477 33.0723C104.665 34.3046 100.763 32.9496 99.5057 30.0394C99.4052 29.8211 99.3204 29.5912 99.2539 29.3522C98.7177 27.4341 99.173 25.1336 100.595 23.6843C100.595 23.6843 100.595 23.6843 100.595 23.683C100.682 23.5913 100.772 23.4828 100.772 23.3459C100.772 23.2309 100.699 23.1108 100.635 23.0255C100.138 22.3112 98.4137 21.0931 98.7594 18.7358C99.0073 17.0424 100.504 15.8502 101.898 15.9212C102.016 15.9277 102.134 15.9341 102.252 15.9419C102.856 15.9768 103.383 16.0543 103.881 16.0749C104.714 16.1111 105.462 15.991 106.349 15.2586C106.648 15.0119 106.888 14.7974 107.294 14.7303C107.337 14.7225 107.443 14.6851 107.655 14.6954C107.872 14.707 108.078 14.7651 108.263 14.8879C108.974 15.3567 109.075 16.4908 109.111 17.3201C109.132 17.7942 109.189 18.9399 109.21 19.2693C109.256 20.021 109.456 20.1283 109.859 20.26C110.086 20.3336 110.297 20.3892 110.608 20.4757C111.548 20.7379 112.107 21.0027 112.459 21.3437C112.669 21.5569 112.767 21.7829 112.797 21.9986C112.908 22.7995 112.168 23.7902 110.211 24.6892C108.071 25.6722 105.475 25.9215 103.682 25.7239C103.545 25.7084 103.055 25.6541 103.053 25.6541C101.618 25.4629 100.8 27.2984 101.661 28.5565C102.215 29.3677 103.727 29.8947 105.239 29.8947C108.707 29.8947 111.372 28.4287 112.364 27.1628C112.394 27.1254 112.396 27.1202 112.443 27.0504C112.491 26.9781 112.452 26.9381 112.391 26.9781C111.581 27.5271 107.983 29.7049 104.136 29.05C104.136 29.05 103.669 28.9738 103.241 28.8097C102.901 28.6793 102.192 28.3563 102.106 27.6343C105.207 28.5837 107.162 27.6847 107.162 27.6847ZM102.243 27.1099C102.243 27.1099 102.244 27.1099 102.243 27.1099C102.244 27.1111 102.244 27.1111 102.244 27.1124C102.244 27.1111 102.244 27.1099 102.243 27.1099ZM96.3016 13.8855C97.494 12.5202 98.963 11.3344 100.278 10.6679C100.324 10.6446 100.372 10.6937 100.347 10.7376C100.243 10.9249 100.042 11.3254 99.9779 11.6302C99.9675 11.678 100.02 11.7129 100.06 11.6857C100.878 11.1329 102.303 10.5413 103.551 10.4651C103.605 10.4612 103.631 10.5297 103.588 10.562C103.397 10.7066 103.19 10.9056 103.038 11.1071C103.012 11.1419 103.037 11.191 103.08 11.191C103.957 11.1975 105.194 11.501 105.999 11.948C106.053 11.9777 106.014 12.0823 105.953 12.0694C104.734 11.793 102.738 11.5824 100.665 12.0836C98.8155 12.5305 97.4027 13.2203 96.3721 13.963C96.3225 14.0018 96.2599 13.9346 96.3016 13.8855Z" fill="black"/>
</g>
<path d="M14.092 27H15.171V22.84C15.171 21.618 16.081 21.02 16.965 21.02C17.901 21.02 18.408 21.514 18.408 22.71V27H19.487V22.84C19.487 21.618 20.397 21.02 21.281 21.02C22.217 21.02 22.724 21.514 22.724 22.71V27H23.803V22.788C23.803 20.812 22.737 20.084 21.515 20.084C20.67 20.084 19.656 20.474 19.188 21.358C18.837 20.448 18.07 20.084 17.199 20.084C16.224 20.084 15.483 20.604 15.171 21.241V20.201H14.092V27ZM27.627 27.117C28.628 27.117 29.239 26.779 29.746 26.142V27H30.825V22.515C30.825 20.617 29.642 20.084 28.342 20.084C27.029 20.084 25.794 20.656 25.651 22.203H26.73C26.834 21.371 27.354 20.981 28.29 20.981C29.33 20.981 29.746 21.436 29.746 22.515V23.009H28.771C27.029 23.009 25.365 23.542 25.365 25.115C25.365 26.506 26.366 27.117 27.627 27.117ZM27.731 26.259C26.782 26.259 26.444 25.817 26.444 25.115C26.444 24.114 27.445 23.776 28.81 23.776H29.746V24.621C29.746 25.674 28.875 26.259 27.731 26.259ZM35.5055 27.117C36.4935 27.117 37.4425 26.493 37.8325 25.83V27H38.9115V16.951H37.8325V21.293C37.4425 20.63 36.7405 20.084 35.6095 20.084C33.7375 20.084 32.4375 21.553 32.4375 23.633V23.737C32.4375 25.856 33.7245 27.117 35.5055 27.117ZM35.6225 26.22C34.4785 26.22 33.5555 25.401 33.5555 23.685V23.581C33.5555 21.93 34.3615 20.981 35.7135 20.981C37.0395 20.981 37.8715 21.8 37.8715 23.542V23.646C37.8715 25.388 36.8835 26.22 35.6225 26.22ZM43.8769 27.117C45.4109 27.117 46.5419 26.402 46.7759 25.037H45.6969C45.5539 25.83 44.9429 26.22 43.8899 26.22C42.4989 26.22 41.7579 25.362 41.7059 23.815H46.8279V23.464C46.8279 21.033 45.3459 20.084 43.7729 20.084C41.9009 20.084 40.5879 21.514 40.5879 23.568V23.672C40.5879 25.765 41.9529 27.117 43.8769 27.117ZM41.7449 22.944C41.9269 21.735 42.6679 20.981 43.7729 20.981C44.8909 20.981 45.6189 21.54 45.7229 22.944H41.7449ZM53.289 27H54.472L56.058 21.904L57.475 27H58.671L60.79 20.201H59.685L58.086 25.674L56.539 20.201H55.603L53.952 25.674L52.366 20.201H51.196L53.289 27ZM62.7913 18.784C63.1813 18.784 63.5063 18.459 63.5063 18.069C63.5063 17.679 63.1813 17.354 62.7913 17.354C62.4013 17.354 62.0763 17.679 62.0763 18.069C62.0763 18.459 62.4013 18.784 62.7913 18.784ZM62.2713 27H63.3503V20.201H62.2713V27ZM67.6258 27.091C68.0678 27.091 68.3278 27.026 68.5488 26.948V26.038C68.3148 26.129 68.0548 26.181 67.7168 26.181C67.1708 26.181 66.8718 25.856 66.8718 25.193V21.111H68.4578V20.201H66.8718V18.654H65.7928V20.201H64.8178V21.111H65.7928V25.297C65.7928 26.363 66.3908 27.091 67.6258 27.091ZM70.1799 27H71.2589V22.879C71.2589 21.657 72.1559 21.02 73.1569 21.02C74.2489 21.02 74.7559 21.553 74.7559 22.749V27H75.8349V22.827C75.8349 20.851 74.8469 20.084 73.4429 20.084C72.3249 20.084 71.5709 20.643 71.2589 21.28V16.951H70.1799V27Z" fill="black"/>
<defs>
<clipPath id="clip0">
<rect width="118.848" height="31.6413" fill="white" transform="translate(85 5)"/>
</clipPath>
</defs>
</svg>
